# AST/ASF file generated using VICON BodyLanguage
# -----------------------------------------------
:version 1.10
:name VICON
:units
  mass 1.0
  length 0.1
  angle deg
:documentation
   .ast/.asf automatically generated from VICON data using
   VICON BodyBuilder and BodyLanguage model FULLBODY5.MOD
:root
   order TX TY TZ RZ RY RX
   axis XYZ
   position 0 0 0  
   orientation 0 -0 0 
:bonedata
  begin
     id 1 
     name lhipjoint
     direction 0.961525 -0.229516 0.150972 
     length 0.502153 
     axis 0 -0 0  XYZ
  end
  begin
     id 2 
     name lfemur
     direction 0.173648 -0.984808 0  
     length 1.83052  
     axis 0 -0 10  XYZ
    dof rx ry rz
    limits (-180.0 180.0)
           (-180.0 180.0)
           (-180.0 180.0)
  end
  begin
     id 3 
     name ltibia
     direction 0.173629 -0.984811 0   
     length 1.50296   
     axis 0 -0 10   XYZ
    dof rx ry rz
    limits (-180.0 180.0)
           (-180.0 180.0)
           (-180.0 180.0)
  end
  begin
     id 4 
     name lfoot
     direction 7.59329e-012 -0.227408 0.9738   
     length 0.574743   
     axis -90 -1.73656e-015 10   XYZ
    dof rx ry rz
    limits (-180.0 180.0)
           (-180.0 180.0)
           (-180.0 180.0)
  end
  begin
     id 5 
     name ltoes
     direction 7.79885e-012 -4.41741e-011 1   
     length 0.28489   
     axis -90 -1.73656e-015 10   XYZ
    dof rx ry rz
    limits (-180.0 180.0)
           (-180.0 180.0)
           (-180.0 180.0)
  end
  begin
     id 6 
     name rhipjoint
     direction -0.970498 -0.201437 0.132502   
     length 0.572149  
     axis 0 -0 0  XYZ 
  end
  begin
     id 7 
     name rfemur
     direction -0.173648 -0.984808 0   
     length 1.71866   
     axis 0 -0 -10   XYZ
    dof rx ry rz
    limits (-180.0 180.0)
           (-180.0 180.0)
           (-180.0 180.0)
  end
  begin
     id 8 
     name rtibia
     direction -0.173624 -0.984812 0   
     length 1.42623   
     axis 0 -0 -10   XYZ
    dof rx ry rz
    limits (-180.0 180.0)
           (-180.0 180.0)
           (-180.0 180.0)
 end
 begin
     id 9 
     name rfoot
     direction -7.12931e-012 -0.404275 0.914637   
     length 0.524692  
     axis -90 1.73656e-015 -10   XYZ
    dof rx ry rz
    limits (-180.0 180.0)
           (-180.0 180.0)
           (-180.0 180.0)
  end
  begin
     id 10 
     name rtoes
     direction -7.79289e-012 -4.41454e-011 1   
     length 0.254983   
     axis -90 1.73656e-015 -10   XYZ
    dof rx ry rz
    limits (-180.0 180.0)
           (-180.0 180.0)
           (-180.0 180.0)
  end
  begin
     id 11 
     name lowerback
     direction -0.0214086 0.993738 0.109665   
     length 0.417614   
     axis 0 -0 0   XYZ
    dof rx ry rz
    limits (-180.0 180.0)
           (-180.0 180.0)
           (-180.0 180.0)
  end
  begin
     id 12 
     name upperback
     direction 8.15962e-005 0.99996 0.00893412   
     length 0.419234   
     axis 0 -0 0   XYZ
    dof rx ry rz
    limits (-180.0 180.0)
           (-180.0 180.0)
           (-180.0 180.0)
  end
  begin
     id 13 
     name thorax
     direction 0.00826031 0.999067 -0.0423848   
     length 0.424697   
     axis 0 -0 0   XYZ
    dof rx ry rz
    limits (-180.0 180.0)
           (-180.0 180.0)
           (-180.0 180.0)
  end
  begin
     id 14 
     name lowerneck
     direction -0.0196262 0.994272 -0.105058   
     length 0.355877   
     axis 0 -0 0   XYZ
    dof rx ry rz
    limits (-180.0 180.0)
           (-180.0 180.0)
           (-180.0 180.0)
  end
  begin
     id 15 
     name upperneck
     direction 0.000117372 0.999091 0.0426261   
     length 0.351054   
     axis 0 -0 0   XYZ
    dof rx ry rz
    limits (-180.0 180.0)
           (-180.0 180.0)
           (-180.0 180.0)
  end
  begin
     id 16
     name head
     direction 0.00157618 0.999651 0.0263619  
     length 0.374844  
     axis 0 -0 0   XYZ
    dof rx ry rz
    limits (-180.0 180.0)
           (-180.0 180.0)
           (-180.0 180.0)
  end
  begin
     id 17 
     name lshoulderjoint
     direction 0.981627 -0.190809 0  
     length 0.701763  
     axis 0 -0 -11   XYZ
    dof rx ry rz
    limits (-180.0 180.0)
           (-180.0 180.0)
           (-180.0 180.0)
  end
  begin
     id 18 
     name lhumerus
     direction 0.48481 -0.87462 -1.80676e-026   
     length 0.994704   
     axis -180 5.14477e-009 -151   XYZ
    dof rx ry rz
    limits (-180.0 180.0)
           (-180.0 180.0)
           (-180.0 180.0)
  end
  begin
     id 19
     name lradius
     direction 0.48481 -0.87462 -3.2569e-026   
     length 0.617638   
     axis -180 5.14477e-009 -151   XYZ
    dof rx ry rz
    limits (-180.0 180.0)
           (-180.0 180.0)
           (-180.0 180.0)
  end
  begin
     id 20
     name lwrist
     direction 0.48481 -0.87462 -6.73202e-026   
     length 0.308819   
     axis -180 5.14477e-009 -151   XYZ
    dof rx ry rz
    limits (-180.0 180.0)
           (-180.0 180.0)
           (-180.0 180.0)
  end
  begin
     id 21 
     name lhand
     direction 0.478366 -0.863761 -0.158376   
     length 0.291656   
     axis -180 5.14477e-009 -151   XYZ
    dof rx ry rz
    limits (-180.0 180.0)
           (-180.0 180.0)
           (-180.0 180.0)
  end
  begin
     id 22 
     name rshoulderjoint
     direction -0.981627 -0.190809 0   
     length 0.66654  
     axis 0 -0 11   XYZ 
    dof rx ry rz
    limits (-180.0 180.0)
           (-180.0 180.0)
           (-180.0 180.0)
  end
  begin
     id 23 
     name rhumerus
     direction -0.48481 -0.87462 1.77576e-026  
     length 1.15089   
     axis 180 5.14477e-009 151   XYZ
    dof rx ry rz
    limits (-180.0 180.0)
           (-180.0 180.0)
           (-180.0 180.0)
  end
  begin
     id 24 
     name rradius
     direction -0.48481 -0.87462 3.79421e-026   
     length 0.613887   
     axis 180 5.14477e-009 151   XYZ
    dof rx ry rz
    limits (-180.0 180.0)
           (-180.0 180.0)
           (-180.0 180.0)
  end
  begin
     id 25 
     name rwrist
     direction -0.48481 -0.87462 5.43623e-026   
     length 0.306944   
     axis 180 5.14477e-009 151   XYZ
    dof rx ry rz
    limits (-180.0 180.0)
           (-180.0 180.0)
           (-180.0 180.0)
  end
  begin
     id 26
     name rhand
     direction -0.479273 -0.864638 -0.150661   
     length 0.306429   
     axis 180 5.14477e-009 151   XYZ
    dof rx ry rz
    limits (-180.0 180.0)
           (-180.0 180.0)
           (-180.0 180.0)
  end
:hierarchy
  begin
    root lhipjoint rhipjoint lowerback 
    lhipjoint lfemur
    lfemur ltibia
    ltibia lfoot
    lfoot ltoes
    rhipjoint rfemur
    rfemur rtibia
    rtibia rfoot
    rfoot rtoes
    lowerback upperback
    upperback thorax
    thorax lowerneck lshoulderjoint rshoulderjoint
    lowerneck upperneck
    upperneck head
    lshoulderjoint lhumerus
    lhumerus lradius
    lradius lwrist
    lwrist lhand
    rshoulderjoint rhumerus
    rhumerus rradius
    rradius rwrist
    rwrist rhand
  end

:FULLY-SPECIFIED
:DEGREES
1857
root 8.63524 3.58105 -0.0595238 -89.1179 74.4943 93.9828
lowerback -16.5054 -1.14878 -2.30788
upperback -3.80287 -0.885312 -0.634979
thorax 5.21542 -0.373336 0.460862
lowerneck 12.3651 2.15587 -3.64259
upperneck -3.31555 2.32394 -0.285136
head -3.31089 1.23673 0.394706
rshoulderjoint 1.35803 -3.42762 -32.6289
rhumerus -6.83638 -7.89104 -57.247
rradius 32.3574 -3.38729e-013 7.65321e-015
rwrist 8.72272e-013 8.83166 2.49451e-013
rhand 10.1199 -7.72237 30.144
lshoulderjoint 2.95938 11.3979 25.6598
lhumerus -2.31125 7.63742 50.7554
lradius 22.2126 3.78486e-013 -1.48691e-013
lwrist 8.81169e-013 -6.97238 -4.55004e-013
lhand 19.5246 6.72363 -15.1698
rfemur -11.9707 3.35413 10.1274
rtibia -1.05753e-013 1.03368e-014 5.56597e-015
rfoot -3.64997 15.0808 -11.9778
rtoes 2.57227e-013 7.95139e-015 -1.43125e-013
lfemur -8.97917 -7.90985 -18.007
ltibia -2.14687e-014 -3.89618e-014 -1.19271e-014
lfoot -5.75735 -4.04146 19.7867
ltoes 2.67167e-013 -6.07784e-014 3.02153e-013
1858
root 8.63694 3.58118 -0.0602846 -89.7217 74.4471 94.588
lowerback -16.5637 -1.17224 -2.33494
upperback -3.81978 -0.909146 -0.619191
thorax 5.23014 -0.384551 0.487382
lowerneck 12.5488 2.16569 -3.6342
upperneck -3.43107 2.32741 -0.305379
head -3.38663 1.24085 0.384167
rshoulderjoint 1.32487 -3.3541 -32.5688
rhumerus -6.87208 -8.51832 -57.1135
rradius 31.8685 6.36111e-015 -3.44891e-014
rwrist 6.66277e-013 8.83299 -1.68983e-013
rhand 10.2938 -7.71383 29.8658
lshoulderjoint 2.92358 11.2639 25.6525
lhumerus -2.15208 7.56179 50.8195
lradius 22.4849 -1.90833e-014 -5.32743e-014
lwrist 6.5079e-013 -7.20373 -3.20586e-015
lhand 19.5726 6.82931 -15.5395
rfemur -11.9646 3.21353 10.1273
rtibia -6.04305e-014 -2.38542e-015 -1.59028e-015
rfoot -3.68833 15.0548 -11.9985
rtoes 1.5863e-013 -1.16538e-013 -6.67916e-014
lfemur -8.99737 -8.01815 -18.0026
ltibia -9.54166e-015 -1.35174e-014 4.77083e-015
lfoot -5.77557 -3.91891 19.7223
ltoes 1.76322e-013 -3.57315e-014 1.52667e-013
1859
root 8.63853 3.58113 -0.0611154 -90.253 74.374 95.0838
lowerback -16.6407 -1.17075 -2.29745
upperback -3.82899 -0.909789 -0.616067
thorax 5.26132 -0.383876 0.468444
lowerneck 12.6542 2.1689 -3.60282
upperneck -3.52255 2.33019 -0.308812
head -3.43874 1.24291 0.375927
rshoulderjoint 1.29728 -3.29371 -32.512
rhumerus -6.89982 -9.26199 -56.969
rradius 31.3911 -6.83819e-014 4.8901e-014
rwrist -6.34054e-013 8.81252 2.52656e-013
rhand 10.5286 -7.64554 29.5135
lshoulderjoint 2.91161 11.1876 25.689
lhumerus -1.93037 7.13324 50.8915
lradius 22.7424 5.40694e-014 -4.29375e-014
lwrist -5.83682e-013 -7.36895 -2.0044e-013
lhand 19.5893 7.03154 -15.9687
rfemur -11.9861 3.10414 10.1668
rtibia 6.36111e-014 -1.98785e-015 7.95139e-016
rfoot -3.7071 15.1213 -12.0411
rtoes -2.26615e-014 2.95692e-014 -2.8625e-014
lfemur -9.04192 -8.10218 -17.9632
ltibia 4.29375e-014 -1.11319e-014 -5.56597e-015
lfoot -5.79503 -3.89275 19.6479
ltoes 9.93923e-015 2.48481e-016 2.06736e-013
1860
root 8.64022 3.58105 -0.062038 -90.7629 74.3026 95.5854
lowerback -16.7044 -1.21322 -2.32446
upperback -3.84267 -0.958774 -0.598066
thorax 5.283 -0.407594 0.491847
lowerneck 12.7198 2.19176 -3.53267
upperneck -3.58201 2.36496 -0.351135
head -3.47114 1.26155 0.3461
rshoulderjoint 1.25167 -3.18478 -32.4688
rhumerus -6.92176 -9.82507 -56.882
rradius 30.9427 1.7334e-013 -7.45443e-015
rwrist -2.73607e-013 8.85346 -1.4646e-013
rhand 10.6474 -7.68446 29.3284
lshoulderjoint 2.93059 11.2344 25.7225
lhumerus -1.74747 6.61968 50.9553
lradius 23.0585 -1.84472e-013 4.53229e-014
lwrist -1.89334e-013 -7.64207 2.08589e-013
lhand 19.6304 7.34542 -16.297
rfemur -12.0037 2.98845 10.1699
rtibia -7.87187e-014 -7.95139e-015 -1.11319e-014
rfoot -3.7565 15.077 -12.0883
rtoes 5.52621e-014 -5.19325e-014 4.77083e-015
lfemur -9.08452 -8.18991 -17.9575
ltibia -2.38542e-015 -2.38542e-015 1.59028e-015
lfoot -5.78129 -3.9772 19.5921
ltoes 1.02374e-013 -4.12478e-015 1.1609e-013
1861
root 8.64172 3.58114 -0.0629162 -91.1353 74.2331 95.9625
lowerback -16.7623 -1.17467 -2.29634
upperback -3.90004 -0.907659 -0.6006
thorax 5.25136 -0.379758 0.48386
lowerneck 12.9747 2.17383 -3.57878
upperneck -3.6912 2.32263 -0.340748
head -3.55976 1.24283 0.357928
rshoulderjoint 1.236 -3.13423 -32.5348
rhumerus -7.07806 -10.3834 -56.8448
rradius 30.5432 -2.54444e-013 -3.97569e-015
rwrist 3.31575e-013 8.8841 1.97979e-013
rhand 10.7058 -7.77891 29.2365
lshoulderjoint 2.87018 11.0215 25.6949
lhumerus -1.67681 6.20213 50.9764
lradius 23.388 2.63986e-013 -1.46306e-013
lwrist 3.69293e-013 -7.92766 -4.15856e-013
lhand 19.7726 7.64741 -16.4984
rfemur -12.029 2.90798 10.1621
rtibia -1.11319e-014 1.27222e-014 5.56597e-015
rfoot -3.79846 15.1674 -12.1277
rtoes 1.30403e-013 6.78353e-014 -1.43125e-013
lfemur -9.12733 -8.24453 -17.9667
ltibia -3.73715e-014 -2.22639e-014 -1.90833e-014
lfoot -5.77895 -3.92799 19.5353
ltoes 2.03357e-013 -2.08227e-014 2.3218e-013
1862
root 8.64354 3.58163 -0.0634218 -91.74 74.2477 96.5249
lowerback -16.7357 -1.18637 -2.27289
upperback -3.91315 -0.928984 -0.578504
thorax 5.22366 -0.389503 0.489995
lowerneck 13.089 2.17435 -3.58168
upperneck -3.72102 2.3172 -0.352681
head -3.59246 1.24151 0.353683
rshoulderjoint 1.1954 -3.03197 -32.5295
rhumerus -7.1971 -10.9065 -56.7396
rradius 30.1694 6.99722e-014 -8.40859e-014
rwrist -6.43823e-014 8.87691 -2.06023e-013
rhand 10.7697 -7.82781 29.1583
lshoulderjoint 2.84934 10.9515 25.6808
lhumerus -1.67168 5.91039 50.9229
lradius 23.7266 -8.5875e-014 -4.69132e-014
lwrist -1.41278e-013 -7.87815 -3.85303e-014
lhand 20.189 7.5229 -16.4599
rfemur -11.9465 2.77902 10.2167
rtibia 2.14687e-014 -3.18055e-015 2.38542e-015
rfoot -3.87667 15.1311 -12.1794
rtoes -1.90833e-014 2.36554e-014 4.77083e-015
lfemur -9.07813 -8.33357 -17.925
ltibia 1.98785e-014 2.38542e-015 -7.15625e-015
lfoot -5.78026 -3.85556 19.469
ltoes -1.39149e-015 -1.30204e-014 1.00187e-013
1863
root 8.645 3.58179 -0.0643255 -92.0893 74.2061 96.8958
lowerback -16.7398 -1.201 -2.30603
upperback -3.94916 -0.941567 -0.566691
thorax 5.18862 -0.394591 0.518967
lowerneck 13.1654 2.18466 -3.57646
upperneck -3.71082 2.32715 -0.38492
head -3.60335 1.24823 0.34062
rshoulderjoint 1.17945 -2.99183 -32.5271
rhumerus -7.28282 -11.4959 -56.6311
rradius 29.8217 -6.36111e-014 -4.87022e-015
rwrist -5.21543e-013 8.90945 1.38434e-013
rhand 10.8833 -7.76885 29.006
lshoulderjoint 2.84293 10.9349 25.67
lhumerus -1.57064 5.42082 50.9847
lradius 24.1039 6.04305e-014 8.42847e-014
lwrist -4.78676e-013 -8.09789 3.37322e-014
lhand 20.3045 7.71194 -16.5826
rfemur -11.9457 2.69902 10.1913
rtibia 6.75868e-014 -1.07344e-014 2.38542e-015
rfoot -3.92391 15.2008 -12.209
rtoes -2.8466e-013 1.25582e-013 7.31528e-014
lfemur -9.08972 -8.38298 -17.956
ltibia 5.96354e-014 1.35174e-014 -2.38542e-014
lfoot -5.782 -3.86108 19.408
ltoes -2.14687e-013 1.0461e-013 8.42847e-014
1864
root 8.64605 3.58176 -0.0653821 -92.3765 74.117 97.1522
lowerback -16.7802 -1.17838 -2.25734
upperback -3.97796 -0.918047 -0.552876
thorax 5.17852 -0.381365 0.510748
lowerneck 13.1308 2.16624 -3.60782
upperneck -3.65467 2.30031 -0.386137
head -3.5767 1.23511 0.34835
rshoulderjoint 1.20154 -3.04101 -32.5717
rhumerus -7.32028 -11.7436 -56.576
rradius 29.5114 -6.36111e-014 4.18442e-014
rwrist 1.50967e-012 8.85414 -1.06224e-013
rhand 10.9037 -7.88347 28.9609
lshoulderjoint 2.83379 10.9157 25.6492
lhumerus -1.43783 4.85695 51.0309
lradius 24.5045 2.06736e-014 -1.74931e-014
lwrist 1.54219e-012 -8.13735 1.73497e-013
lhand 20.3688 7.71794 -16.7492
rfemur -12.0014 2.6468 10.208
rtibia -1.43125e-014 -1.19271e-015 2.38542e-015
rfoot -3.96453 15.1641 -12.2563
rtoes 1.32788e-013 -3.51352e-014 -1.59028e-015
lfemur -9.16563 -8.41122 -17.9342
ltibia -7.95139e-014 -3.18055e-015 7.95139e-016
lfoot -5.79231 -3.90564 19.3586
ltoes 1.59028e-013 -5.62561e-014 1.47896e-013
1865
root 8.64701 3.58183 -0.0664802 -92.6085 74.0238 97.3463
lowerback -16.7975 -1.19991 -2.23999
upperback -3.97527 -0.94991 -0.535141
thorax 5.19153 -0.396968 0.512763
lowerneck 12.8928 2.17568 -3.49062
upperneck -3.54469 2.33797 -0.464028
head -3.48859 1.25357 0.301625
rshoulderjoint 1.21525 -3.08028 -32.5429
rhumerus -7.27583 -12.2691 -56.4823
rradius 29.2403 -2.29e-013 4.96962e-014
rwrist -3.44455e-013 8.88784 3.6538e-013
rhand 11.0984 -7.76903 28.7495
lshoulderjoint 2.88487 11.0727 25.7024
lhumerus -1.25987 4.04828 51.1094
lradius 24.9692 2.09917e-013 1.59028e-015
lwrist -3.43934e-013 -8.31352 -2.21789e-013
lhand 20.1949 7.97048 -17.0837
rfemur -12.0692 2.60989 10.2262
rtibia -2.06736e-014 -3.97569e-015 6.36111e-015
rfoot -3.98471 15.1402 -12.2861
rtoes 5.12864e-014 1.10425e-013 -6.83819e-014
lfemur -9.24421 -8.42397 -17.9062
ltibia -5.725e-014 -1.74931e-014 -2.54444e-014
lfoot -5.79677 -3.9274 19.2992
ltoes 8.42847e-014 1.95803e-014 2.21049e-013
1866
root 8.64763 3.58169 -0.0676302 -92.7227 73.9609 97.5047
lowerback -16.8073 -1.19052 -2.2663
upperback -4.00217 -0.92993 -0.555383
thorax 5.16778 -0.386164 0.510595
lowerneck 12.8751 2.16233 -3.45857
upperneck -3.48882 2.32691 -0.471296
head -3.46455 1.24743 0.294768
rshoulderjoint 1.20937 -3.0683 -32.5241
rhumerus -7.33476 -12.7447 -56.3906
rradius 29.014 4.77083e-014 5.82439e-014
rwrist -5.53799e-013 8.95055 1.3684e-013
rhand 11.211 -7.77023 28.6854
lshoulderjoint 2.87455 11.0162 25.7229
lhumerus -1.21219 3.4987 51.1597
lradius 25.4824 -2.38542e-014 5.08889e-014
lwrist -6.14119e-013 -8.42864 2.08993e-014
lhand 19.9247 7.9611 -17.4951
rfemur -12.1184 2.58336 10.161
rtibia 5.64548e-014 -3.57812e-015 4.77083e-015
rfoot -3.98523 15.1535 -12.3183
rtoes -8.74653e-015 3.60297e-014 7.95139e-015
lfemur -9.29122 -8.42254 -17.9681
ltibia 4.37326e-014 -7.15625e-015 -7.15625e-015
lfoot -5.8089 -3.92889 19.2365
ltoes 4.59193e-014 8.24956e-015 1.38354e-013
